<?xml version="1.0" standalone="no"?>
<!DOCTYPE svg PUBLIC "-//W3C//DTD SVG 1.1//EN" "http://www.w3.org/Graphics/SVG/1.1/DTD/svg11.dtd">
<svg width="100%" height="100%" viewBox="0 0 52 50" version="1.1" xmlns="http://www.w3.org/2000/svg" xmlns:xlink="http://www.w3.org/1999/xlink" xml:space="preserve" style="fill-rule:evenodd;clip-rule:evenodd;stroke-linecap:round;stroke-miterlimit:1.41421;">
    <g transform="matrix(1,0,0,1,0.732051,-0)">
        <rect x="1" y="3" width="48" height="44" style="fill:none;stroke-width:2px;stroke:rgb(0,184,255);"/>
        <path d="M9,25L42,25" style="fill:black;fill-rule:nonzero;stroke-width:2px;stroke-linecap:butt;stroke:rgb(0,184,255);"/>
        <path d="M43,8L48,8" style="fill:black;fill-rule:nonzero;stroke-width:2px;stroke-linecap:butt;stroke:rgb(0,184,255);"/>
        <path d="M43,13L48,13" style="fill:black;fill-rule:nonzero;stroke-width:2px;stroke-linecap:butt;stroke:rgb(0,184,255);"/>
        <path d="M43,18L48,18" style="fill:black;fill-rule:nonzero;stroke-width:2px;stroke-linecap:butt;stroke:rgb(0,184,255);"/>
        <path d="M43,23L48,23" style="fill:black;fill-rule:nonzero;stroke-width:2px;stroke-linecap:butt;stroke:rgb(0,184,255);"/>
        <path d="M43,28L48,28" style="fill:black;fill-rule:nonzero;stroke-width:2px;stroke-linecap:butt;stroke:rgb(0,184,255);"/>
        <path d="M43,33L48,33" style="fill:black;fill-rule:nonzero;stroke-width:2px;stroke-linecap:butt;stroke:rgb(0,184,255);"/>
        <path d="M43,38L48,38" style="fill:black;fill-rule:nonzero;stroke-width:2px;stroke-linecap:butt;stroke:rgb(0,184,255);"/>
        <path d="M43,43L48,43" style="fill:black;fill-rule:nonzero;stroke-width:2px;stroke-linecap:butt;stroke:rgb(0,184,255);"/>
        <rect x="47" y="3" width="2" height="44" style="fill:rgb(0,184,255);"/>
        <rect x="40" y="3" width="3" height="44" style="fill:rgb(0,184,255);"/>
        <path d="M7,8L2,8" style="fill:black;fill-rule:nonzero;stroke-width:2px;stroke-linecap:butt;stroke:rgb(0,184,255);"/>
        <path d="M7,13L2,13" style="fill:black;fill-rule:nonzero;stroke-width:2px;stroke-linecap:butt;stroke:rgb(0,184,255);"/>
        <path d="M7,18L2,18" style="fill:black;fill-rule:nonzero;stroke-width:2px;stroke-linecap:butt;stroke:rgb(0,184,255);"/>
        <path d="M7,23L2,23" style="fill:black;fill-rule:nonzero;stroke-width:2px;stroke-linecap:butt;stroke:rgb(0,184,255);"/>
        <path d="M7,28L2,28" style="fill:black;fill-rule:nonzero;stroke-width:2px;stroke-linecap:butt;stroke:rgb(0,184,255);"/>
        <path d="M7,33L2,33" style="fill:black;fill-rule:nonzero;stroke-width:2px;stroke-linecap:butt;stroke:rgb(0,184,255);"/>
        <path d="M7,38L2,38" style="fill:black;fill-rule:nonzero;stroke-width:2px;stroke-linecap:butt;stroke:rgb(0,184,255);"/>
        <path d="M7,43L2,43" style="fill:black;fill-rule:nonzero;stroke-width:2px;stroke-linecap:butt;stroke:rgb(0,184,255);"/>
        <rect x="1" y="3" width="2" height="44" style="fill:rgb(0,184,255);"/>
        <rect x="7" y="3" width="3" height="44" style="fill:rgb(0,184,255);"/>
    </g>
</svg>
